<svg width="143" height="148" viewBox="0 0 143 148" fill="none" xmlns="http://www.w3.org/2000/svg">
<path d="M7.65 141.27C6.35 141.27 5.17 141.08 4.11 140.7C3.07 140.32 2.24 139.85 1.62 139.29C1.02 138.71 0.72 138.13 0.72 137.55C0.72 137.27 0.79 136.97 0.93 136.65C1.09 136.31 1.3 136.03 1.56 135.81C1.82 135.57 2.11 135.45 2.43 135.45C2.75 135.45 3.05 135.57 3.33 135.81C3.61 136.03 3.93 136.3 4.29 136.62C4.65 136.92 5.09 137.19 5.61 137.43C6.13 137.65 6.77 137.76 7.53 137.76C8.13 137.76 8.68 137.67 9.18 137.49C9.7 137.29 10.11 137 10.41 136.62C10.73 136.24 10.89 135.75 10.89 135.15C10.89 134.51 10.72 133.97 10.38 133.53C10.04 133.09 9.58 132.71 9 132.39C8.42 132.07 7.79 131.76 7.11 131.46C6.43 131.16 5.74 130.84 5.04 130.5C4.36 130.16 3.73 129.75 3.15 129.27C2.59 128.79 2.13 128.2 1.77 127.5C1.43 126.8 1.26 125.94 1.26 124.92C1.26 123.8 1.47 122.86 1.89 122.1C2.33 121.34 2.9 120.73 3.6 120.27C4.32 119.79 5.11 119.45 5.97 119.25C6.83 119.03 7.69 118.92 8.55 118.92C9.01 118.92 9.55 118.96 10.17 119.04C10.81 119.1 11.44 119.22 12.06 119.4C12.7 119.58 13.22 119.83 13.62 120.15C14.04 120.45 14.25 120.85 14.25 121.35C14.25 121.57 14.19 121.84 14.07 122.16C13.97 122.48 13.8 122.77 13.56 123.03C13.34 123.29 13.05 123.42 12.69 123.42C12.37 123.42 12.05 123.33 11.73 123.15C11.43 122.95 11.03 122.76 10.53 122.58C10.05 122.38 9.39 122.28 8.55 122.28C7.85 122.28 7.24 122.37 6.72 122.55C6.2 122.73 5.81 122.99 5.55 123.33C5.29 123.65 5.16 124.06 5.16 124.56C5.16 125.08 5.33 125.52 5.67 125.88C6.03 126.24 6.49 126.56 7.05 126.84C7.63 127.12 8.26 127.4 8.94 127.68C9.62 127.96 10.3 128.29 10.98 128.67C11.68 129.03 12.32 129.47 12.9 129.99C13.48 130.51 13.94 131.16 14.28 131.94C14.62 132.7 14.79 133.64 14.79 134.76C14.79 136.18 14.48 137.38 13.86 138.36C13.24 139.32 12.39 140.05 11.31 140.55C10.25 141.03 9.03 141.27 7.65 141.27ZM19.0938 123.57C18.5138 123.57 18.0138 123.38 17.5938 123C17.1738 122.6 16.9638 122.16 16.9638 121.68C16.9638 121.16 17.1738 120.72 17.5938 120.36C18.0138 119.98 18.5138 119.79 19.0938 119.79C19.6938 119.79 20.1938 119.98 20.5938 120.36C20.9938 120.72 21.1938 121.16 21.1938 121.68C21.1938 122.16 20.9938 122.6 20.5938 123C20.1938 123.38 19.6938 123.57 19.0938 123.57ZM19.0938 141C18.5338 141 18.0738 140.87 17.7138 140.61C17.3538 140.35 17.1738 140.06 17.1738 139.74V127.95C17.1738 127.59 17.3538 127.3 17.7138 127.08C18.0738 126.86 18.5338 126.75 19.0938 126.75C19.6338 126.75 20.0938 126.86 20.4738 127.08C20.8538 127.3 21.0438 127.59 21.0438 127.95V139.74C21.0438 140.06 20.8538 140.35 20.4738 140.61C20.0938 140.87 19.6338 141 19.0938 141ZM25.92 141C25.36 141 24.9 140.87 24.54 140.61C24.18 140.35 24 140.06 24 139.74V127.95C24 127.59 24.18 127.3 24.54 127.08C24.9 126.86 25.36 126.75 25.92 126.75C26.4 126.75 26.8 126.86 27.12 127.08C27.46 127.3 27.63 127.59 27.63 127.95V128.85C27.97 128.27 28.47 127.75 29.13 127.29C29.79 126.81 30.62 126.57 31.62 126.57C32.48 126.57 33.24 126.85 33.9 127.41C34.56 127.97 35.05 128.69 35.37 129.57C35.89 128.55 36.55 127.8 37.35 127.32C38.17 126.82 39.01 126.57 39.87 126.57C40.79 126.57 41.65 126.81 42.45 127.29C43.27 127.75 43.93 128.44 44.43 129.36C44.95 130.26 45.21 131.36 45.21 132.66V139.74C45.21 140.06 45.02 140.35 44.64 140.61C44.26 140.87 43.8 141 43.26 141C42.74 141 42.29 140.87 41.91 140.61C41.53 140.35 41.34 140.06 41.34 139.74V132.66C41.34 132.06 41.22 131.56 40.98 131.16C40.76 130.76 40.46 130.46 40.08 130.26C39.7 130.04 39.31 129.93 38.91 129.93C38.53 129.93 38.16 130.04 37.8 130.26C37.44 130.46 37.14 130.76 36.9 131.16C36.66 131.56 36.54 132.05 36.54 132.63V139.77C36.54 140.21 36.33 140.53 35.91 140.73C35.51 140.91 35.07 141 34.59 141C34.15 141 33.72 140.91 33.3 140.73C32.88 140.53 32.67 140.21 32.67 139.77V132.66C32.67 132.1 32.55 131.62 32.31 131.22C32.09 130.82 31.79 130.51 31.41 130.29C31.05 130.07 30.66 129.96 30.24 129.96C29.84 129.96 29.46 130.06 29.1 130.26C28.74 130.46 28.44 130.76 28.2 131.16C27.98 131.56 27.87 132.06 27.87 132.66V139.74C27.87 140.06 27.68 140.35 27.3 140.61C26.92 140.87 26.46 141 25.92 141ZM50.002 147.63C49.462 147.63 49.012 147.5 48.652 147.24C48.292 146.98 48.112 146.7 48.112 146.4V127.95C48.112 127.59 48.292 127.3 48.652 127.08C49.012 126.86 49.452 126.75 49.972 126.75C50.492 126.75 50.912 126.86 51.232 127.08C51.572 127.3 51.742 127.59 51.742 127.95V128.85C52.082 128.27 52.602 127.75 53.302 127.29C54.002 126.81 54.832 126.57 55.792 126.57C56.812 126.57 57.722 126.85 58.522 127.41C59.342 127.95 59.982 128.68 60.442 129.6C60.922 130.52 61.162 131.54 61.162 132.66V135.12C61.162 136.18 60.922 137.18 60.442 138.12C59.962 139.06 59.322 139.82 58.522 140.4C57.742 140.98 56.872 141.27 55.912 141.27C55.032 141.27 54.232 141.03 53.512 140.55C52.792 140.07 52.282 139.52 51.982 138.9V146.4C51.982 146.7 51.792 146.98 51.412 147.24C51.032 147.5 50.562 147.63 50.002 147.63ZM54.652 137.88C55.132 137.88 55.562 137.75 55.942 137.49C56.342 137.21 56.662 136.86 56.902 136.44C57.162 136.02 57.292 135.58 57.292 135.12V132.66C57.292 132.2 57.172 131.77 56.932 131.37C56.692 130.97 56.362 130.64 55.942 130.38C55.542 130.1 55.092 129.96 54.592 129.96C54.152 129.96 53.732 130.07 53.332 130.29C52.952 130.51 52.632 130.82 52.372 131.22C52.112 131.62 51.982 132.1 51.982 132.66V135.66C51.982 135.86 52.092 136.14 52.312 136.5C52.552 136.84 52.872 137.16 53.272 137.46C53.672 137.74 54.132 137.88 54.652 137.88ZM65.8287 141C65.2687 141 64.8087 140.87 64.4487 140.61C64.0887 140.35 63.9087 140.06 63.9087 139.74V119.64C63.9087 119.28 64.0887 118.99 64.4487 118.77C64.8087 118.55 65.2687 118.44 65.8287 118.44C66.3687 118.44 66.8287 118.55 67.2087 118.77C67.5887 118.99 67.7787 119.28 67.7787 119.64V139.74C67.7787 140.06 67.5887 140.35 67.2087 140.61C66.8287 140.87 66.3687 141 65.8287 141ZM77.7708 141.27C76.3508 141.27 75.0908 141.02 73.9908 140.52C72.9108 140 72.0608 139.28 71.4408 138.36C70.8208 137.42 70.5108 136.34 70.5108 135.12V132.57C70.5108 131.49 70.8008 130.5 71.3808 129.6C71.9808 128.68 72.7708 127.95 73.7508 127.41C74.7508 126.85 75.8608 126.57 77.0808 126.57C78.2008 126.57 79.2208 126.81 80.1408 127.29C81.0808 127.77 81.8408 128.43 82.4208 129.27C83.0008 130.11 83.2908 131.09 83.2908 132.21C83.2908 133.07 83.1508 133.69 82.8708 134.07C82.5908 134.43 82.2308 134.66 81.7908 134.76C81.3708 134.84 80.9308 134.88 80.4708 134.88H74.3808V135.33C74.3808 136.19 74.7008 136.89 75.3408 137.43C76.0008 137.95 76.8508 138.21 77.8908 138.21C78.5508 138.21 79.1008 138.11 79.5408 137.91C79.9808 137.71 80.3608 137.52 80.6808 137.34C81.0008 137.16 81.3008 137.07 81.5808 137.07C81.8808 137.07 82.1408 137.17 82.3608 137.37C82.5808 137.57 82.7508 137.81 82.8708 138.09C82.9908 138.35 83.0508 138.58 83.0508 138.78C83.0508 139.12 82.8308 139.49 82.3908 139.89C81.9708 140.27 81.3608 140.6 80.5608 140.88C79.7808 141.14 78.8508 141.27 77.7708 141.27ZM74.3808 132.6H78.7608C79.1008 132.6 79.3308 132.55 79.4508 132.45C79.5908 132.33 79.6608 132.11 79.6608 131.79C79.6608 131.33 79.5308 130.92 79.2708 130.56C79.0308 130.2 78.7108 129.92 78.3108 129.72C77.9308 129.52 77.5008 129.42 77.0208 129.42C76.5608 129.42 76.1308 129.52 75.7308 129.72C75.3308 129.9 75.0008 130.17 74.7408 130.53C74.5008 130.87 74.3808 131.28 74.3808 131.76V132.6ZM93.5372 147.63C92.9972 147.63 92.5472 147.5 92.1872 147.24C91.8272 146.98 91.6472 146.7 91.6472 146.4V127.95C91.6472 127.59 91.8272 127.3 92.1872 127.08C92.5472 126.86 92.9872 126.75 93.5072 126.75C94.0272 126.75 94.4472 126.86 94.7672 127.08C95.1072 127.3 95.2772 127.59 95.2772 127.95V128.85C95.6172 128.27 96.1372 127.75 96.8372 127.29C97.5372 126.81 98.3672 126.57 99.3272 126.57C100.347 126.57 101.257 126.85 102.057 127.41C102.877 127.95 103.517 128.68 103.977 129.6C104.457 130.52 104.697 131.54 104.697 132.66V135.12C104.697 136.18 104.457 137.18 103.977 138.12C103.497 139.06 102.857 139.82 102.057 140.4C101.277 140.98 100.407 141.27 99.4472 141.27C98.5672 141.27 97.7672 141.03 97.0472 140.55C96.3272 140.07 95.8172 139.52 95.5172 138.9V146.4C95.5172 146.7 95.3272 146.98 94.9472 147.24C94.5672 147.5 94.0972 147.63 93.5372 147.63ZM98.1872 137.88C98.6672 137.88 99.0972 137.75 99.4772 137.49C99.8772 137.21 100.197 136.86 100.437 136.44C100.697 136.02 100.827 135.58 100.827 135.12V132.66C100.827 132.2 100.707 131.77 100.467 131.37C100.227 130.97 99.8972 130.64 99.4772 130.38C99.0772 130.1 98.6272 129.96 98.1272 129.96C97.6872 129.96 97.2672 130.07 96.8672 130.29C96.4872 130.51 96.1672 130.82 95.9072 131.22C95.6472 131.62 95.5172 132.1 95.5172 132.66V135.66C95.5172 135.86 95.6272 136.14 95.8472 136.5C96.0872 136.84 96.4072 137.16 96.8072 137.46C97.2072 137.74 97.6672 137.88 98.1872 137.88ZM109.364 141C108.804 141 108.344 140.87 107.984 140.61C107.624 140.35 107.444 140.06 107.444 139.74V119.64C107.444 119.28 107.624 118.99 107.984 118.77C108.344 118.55 108.804 118.44 109.364 118.44C109.904 118.44 110.364 118.55 110.744 118.77C111.124 118.99 111.314 119.28 111.314 119.64V139.74C111.314 140.06 111.124 140.35 110.744 140.61C110.364 140.87 109.904 141 109.364 141ZM117.646 141.27C116.586 141.27 115.666 140.95 114.886 140.31C114.126 139.65 113.746 138.64 113.746 137.28C113.746 136.14 114.036 135.25 114.616 134.61C115.216 133.97 116.036 133.52 117.076 133.26C118.136 133 119.356 132.87 120.736 132.87H121.966V132.48C121.966 132.04 121.876 131.61 121.696 131.19C121.536 130.77 121.266 130.42 120.886 130.14C120.526 129.86 120.006 129.72 119.326 129.72C118.566 129.72 117.976 129.8 117.556 129.96C117.156 130.1 116.846 130.25 116.626 130.41C116.406 130.57 116.166 130.65 115.906 130.65C115.486 130.65 115.156 130.44 114.916 130.02C114.696 129.6 114.586 129.17 114.586 128.73C114.586 128.31 114.836 127.94 115.336 127.62C115.856 127.28 116.486 127.02 117.226 126.84C117.966 126.66 118.686 126.57 119.386 126.57C120.946 126.57 122.196 126.85 123.136 127.41C124.076 127.97 124.756 128.69 125.176 129.57C125.616 130.45 125.836 131.4 125.836 132.42V139.74C125.836 140.1 125.656 140.4 125.296 140.64C124.936 140.88 124.486 141 123.946 141C123.446 141 123.026 140.88 122.686 140.64C122.366 140.4 122.206 140.1 122.206 139.74V138.9C121.666 139.52 121.026 140.07 120.286 140.55C119.566 141.03 118.686 141.27 117.646 141.27ZM119.206 138.39C119.626 138.39 120.046 138.25 120.466 137.97C120.886 137.69 121.236 137.33 121.516 136.89C121.816 136.45 121.966 135.99 121.966 135.51V134.88H121.516C120.856 134.88 120.226 134.92 119.626 135C119.026 135.08 118.536 135.26 118.156 135.54C117.796 135.8 117.616 136.21 117.616 136.77C117.616 137.33 117.766 137.74 118.066 138C118.386 138.26 118.766 138.39 119.206 138.39ZM130.627 141C130.067 141 129.607 140.87 129.247 140.61C128.887 140.35 128.707 140.06 128.707 139.74V127.95C128.707 127.59 128.887 127.3 129.247 127.08C129.607 126.86 130.067 126.75 130.627 126.75C131.107 126.75 131.507 126.86 131.827 127.08C132.167 127.3 132.337 127.59 132.337 127.95V128.85C132.637 128.27 133.127 127.75 133.807 127.29C134.507 126.81 135.357 126.57 136.357 126.57C137.297 126.57 138.157 126.85 138.937 127.41C139.717 127.95 140.337 128.68 140.797 129.6C141.277 130.52 141.517 131.54 141.517 132.66V139.74C141.517 140.16 141.317 140.48 140.917 140.7C140.517 140.9 140.067 141 139.567 141C139.127 141 138.697 140.9 138.277 140.7C137.857 140.48 137.647 140.16 137.647 139.74V132.66C137.647 132.2 137.527 131.77 137.287 131.37C137.067 130.97 136.757 130.64 136.357 130.38C135.957 130.1 135.517 129.96 135.037 129.96C134.637 129.96 134.247 130.07 133.867 130.29C133.487 130.51 133.177 130.82 132.937 131.22C132.697 131.62 132.577 132.1 132.577 132.66V139.74C132.577 140.06 132.387 140.35 132.007 140.61C131.627 140.87 131.167 141 130.627 141Z" fill="#F7C2B6"/>
<path d="M127 55C127 85.3757 102.376 110 72 110C41.6243 110 17 85.3757 17 55C17 24.6243 41.6243 0 72 0C102.376 0 127 24.6243 127 55ZM72 75.625C83.3909 75.625 92.625 66.3909 92.625 55C92.625 43.6091 83.3909 34.375 72 34.375C60.6091 34.375 51.375 43.6091 51.375 55C51.375 66.3909 60.6091 75.625 72 75.625Z" fill="#F8F9FA"/>
</svg>
